<svg width="1400" height="900" viewBox="0 0 1400 900" fill="none" xmlns="http://www.w3.org/2000/svg">
  <defs>
    <linearGradient id="bg" x1="0" y1="0" x2="1400" y2="900" gradientUnits="userSpaceOnUse">
      <stop stop-color="#0A1020"/>
      <stop offset="1" stop-color="#122238"/>
    </linearGradient>
    <linearGradient id="box" x1="0" y1="0" x2="260" y2="150" gradientUnits="userSpaceOnUse">
      <stop stop-color="#1E293B"/>
      <stop offset="1" stop-color="#172437"/>
    </linearGradient>
  </defs>

  <rect width="1400" height="900" rx="28" fill="url(#bg)"/>
  <text x="60" y="92" fill="#E2E8F0" font-family="Inter, Arial, sans-serif" font-size="44" font-weight="700">Document Ingestion Pipeline</text>
  <text x="60" y="132" fill="#94A3B8" font-family="Inter, Arial, sans-serif" font-size="22">PDF/TXT parsing, semantic chunking, embeddings, vector indexing, and KG extraction</text>

  <rect x="60" y="190" width="1280" height="620" rx="22" fill="#0F172A" stroke="#334155"/>

  <rect x="96" y="250" width="190" height="130" rx="14" fill="url(#box)" stroke="#334155"/>
  <text x="116" y="310" fill="#E5E7EB" font-family="Inter, Arial, sans-serif" font-size="24" font-weight="700">Upload</text>
  <text x="116" y="338" fill="#94A3B8" font-family="Inter, Arial, sans-serif" font-size="17">PDF / TXT</text>

  <rect x="332" y="250" width="210" height="130" rx="14" fill="url(#box)" stroke="#334155"/>
  <text x="352" y="310" fill="#E5E7EB" font-family="Inter, Arial, sans-serif" font-size="24" font-weight="700">Parse</text>
  <text x="352" y="338" fill="#94A3B8" font-family="Inter, Arial, sans-serif" font-size="17">Page-aware text</text>

  <rect x="588" y="250" width="220" height="130" rx="14" fill="url(#box)" stroke="#334155"/>
  <text x="608" y="310" fill="#E5E7EB" font-family="Inter, Arial, sans-serif" font-size="24" font-weight="700">Chunk</text>
  <text x="608" y="338" fill="#94A3B8" font-family="Inter, Arial, sans-serif" font-size="17">Semantic segments</text>

  <rect x="854" y="250" width="220" height="130" rx="14" fill="url(#box)" stroke="#334155"/>
  <text x="874" y="310" fill="#E5E7EB" font-family="Inter, Arial, sans-serif" font-size="24" font-weight="700">Embed</text>
  <text x="874" y="338" fill="#94A3B8" font-family="Inter, Arial, sans-serif" font-size="17">OpenAI vectors</text>

  <rect x="1120" y="250" width="184" height="130" rx="14" fill="url(#box)" stroke="#334155"/>
  <text x="1140" y="310" fill="#E5E7EB" font-family="Inter, Arial, sans-serif" font-size="24" font-weight="700">Upsert</text>
  <text x="1140" y="338" fill="#94A3B8" font-family="Inter, Arial, sans-serif" font-size="17">Pinecone</text>

  <path d="M286 315H322" stroke="#64748B" stroke-width="3" stroke-linecap="round"/>
  <path d="M542 315H578" stroke="#64748B" stroke-width="3" stroke-linecap="round"/>
  <path d="M808 315H844" stroke="#64748B" stroke-width="3" stroke-linecap="round"/>
  <path d="M1074 315H1110" stroke="#64748B" stroke-width="3" stroke-linecap="round"/>

  <rect x="220" y="470" width="440" height="250" rx="16" fill="#111827" stroke="#334155"/>
  <text x="248" y="514" fill="#C7D2FE" font-family="Inter, Arial, sans-serif" font-size="28" font-weight="700">Structured Memory</text>
  <text x="248" y="556" fill="#E5E7EB" font-family="Inter, Arial, sans-serif" font-size="20">Entity + relation extraction</text>
  <text x="248" y="590" fill="#94A3B8" font-family="Inter, Arial, sans-serif" font-size="18">Knowledge graph writes to Neo4j</text>
  <text x="248" y="624" fill="#94A3B8" font-family="Inter, Arial, sans-serif" font-size="18">Chunk-level provenance preserved</text>

  <rect x="740" y="470" width="440" height="250" rx="16" fill="#111827" stroke="#334155"/>
  <text x="768" y="514" fill="#86EFAC" font-family="Inter, Arial, sans-serif" font-size="28" font-weight="700">Unstructured Memory</text>
  <text x="768" y="556" fill="#E5E7EB" font-family="Inter, Arial, sans-serif" font-size="20">Vector chunks in Pinecone</text>
  <text x="768" y="590" fill="#94A3B8" font-family="Inter, Arial, sans-serif" font-size="18">Document, page, and chunk metadata</text>
  <text x="768" y="624" fill="#94A3B8" font-family="Inter, Arial, sans-serif" font-size="18">Ready for hybrid retrieval</text>

  <path d="M700 550L740 550" stroke="#64748B" stroke-width="3" stroke-linecap="round"/>
  <text x="646" y="542" fill="#94A3B8" font-family="Inter, Arial, sans-serif" font-size="14">sync</text>
</svg>
